<?xml version="1.0" encoding="utf-8"?>
<!-- Generator: Adobe Illustrator 23.0.1, SVG Export Plug-In . SVG Version: 6.00 Build 0)  -->
<svg version="1.1" id="图层_1" xmlns="http://www.w3.org/2000/svg" xmlns:xlink="http://www.w3.org/1999/xlink" x="0px" y="0px"
	 viewBox="0 0 200 200" style="enable-background:new 0 0 200 200;" xml:space="preserve" fill="#BA5050">
<path d="M192.5,179.4l-32.2-29.9c5.3-6.4,9.7-13.6,13-21.3c4.5-10.6,6.8-21.8,6.8-33.4c0-11.6-2.3-22.8-6.8-33.4
	C169,51.1,162.8,41.9,154.9,34c-7.9-7.9-17.1-14.1-27.3-18.4c-10.6-4.5-21.8-6.8-33.4-6.8s-22.8,2.3-33.4,6.8
	C50.5,20,41.3,26.2,33.5,34S19.4,51.1,15.1,61.3c-4.5,10.6-6.8,21.8-6.8,33.4s2.3,22.8,6.8,33.4c4.3,10.2,10.5,19.4,18.4,27.3
	c7.9,7.9,17.1,14.1,27.3,18.4c10.6,4.5,21.8,6.8,33.4,6.8s22.8-2.3,33.4-6.8c8.9-3.7,16.9-8.9,24.1-15.3l32.4,30
	c1.2,1.1,2.7,1.7,4.2,1.7c1.7,0,3.4-0.7,4.6-2C195.2,185.7,195.1,181.8,192.5,179.4z M94.2,168.1c-40.5,0-73.4-32.9-73.4-73.4
	c0-40.5,32.9-73.4,73.4-73.4s73.4,32.9,73.4,73.4C167.5,135.2,134.6,168.1,94.2,168.1z"/>
</svg>
